<svg width="33" height="33" viewBox="0 0 33 33" fill="none" xmlns="http://www.w3.org/2000/svg">
<g filter="url(#filter0_d_2_173)">
<path d="M2.5 11.9556C2.5 8.47078 2.5 6.7284 3.17818 5.39739C3.77473 4.22661 4.72661 3.27473 5.89739 2.67818C7.2284 2 8.97078 2 12.4556 2H20.5444C24.0292 2 25.7716 2 27.1026 2.67818C28.2734 3.27473 29.2253 4.22661 29.8218 5.39739C30.5 6.7284 30.5 8.47078 30.5 11.9556V20.0444C30.5 23.5292 30.5 25.2716 29.8218 26.6026C29.2253 27.7734 28.2734 28.7253 27.1026 29.3218C25.7716 30 24.0292 30 20.5444 30H12.4556C8.97078 30 7.2284 30 5.89739 29.3218C4.72661 28.7253 3.77473 27.7734 3.17818 26.6026C2.5 25.2716 2.5 23.5292 2.5 20.0444V11.9556Z" fill="white"/>
<path d="M22.5513 8.52295L16.5642 13.1954L10.4402 8.52295V8.52421L10.4476 8.53053V15.0732L16.4951 19.8466L22.5513 15.2575V8.52295Z" fill="#EA4335"/>
<path d="M24.1235 7.38639L22.5511 8.52292V15.2575L27.4987 11.459V9.17074C27.4987 9.17074 26.8981 5.90258 24.1235 7.38639Z" fill="#FBBC05"/>
<path d="M22.5511 15.2577V23.9926H26.3432C26.3432 23.9926 27.4222 23.8814 27.4999 22.6514V11.4591L22.5511 15.2577Z" fill="#34A853"/>
<path d="M10.4479 23.9999V15.0731L10.4402 15.0668L10.4479 23.9999Z" fill="#C5221F"/>
<path d="M10.4401 8.52429L8.87646 7.39407C6.10179 5.91026 5.5 9.17716 5.5 9.17716V11.4654L10.4401 15.0669V8.52429Z" fill="#C5221F"/>
<path d="M10.4402 8.52417V15.0668L10.4479 15.0731V8.53048L10.4402 8.52417Z" fill="#C5221F"/>
<path d="M5.5 11.4666V22.6589C5.57646 23.8901 6.65673 24 6.65673 24H10.4488L10.4401 15.0668L5.5 11.4666Z" fill="#4285F4"/>
</g>
<defs>
<filter id="filter0_d_2_173" x="-1.5" y="-1" width="36" height="36" filterUnits="userSpaceOnUse" color-interpolation-filters="sRGB">
<feFlood flood-opacity="0" result="BackgroundImageFix"/>
<feColorMatrix in="SourceAlpha" type="matrix" values="0 0 0 0 0 0 0 0 0 0 0 0 0 0 0 0 0 0 127 0" result="hardAlpha"/>
<feOffset dy="1"/>
<feGaussianBlur stdDeviation="1"/>
<feColorMatrix type="matrix" values="0 0 0 0 0.0627451 0 0 0 0 0.0941176 0 0 0 0 0.156863 0 0 0 0.05 0"/>
<feBlend mode="normal" in2="BackgroundImageFix" result="effect1_dropShadow_2_173"/>
<feBlend mode="normal" in="SourceGraphic" in2="effect1_dropShadow_2_173" result="shape"/>
</filter>
</defs>
</svg>
